<svg width="312" height="170" viewBox="0 0 312 170" fill="none" xmlns="http://www.w3.org/2000/svg">
<path d="M38.9302 83.1525C38.9302 46.8239 104.587 17.3723 185.581 17.3723C216.014 17.3723 244.284 21.5313 267.717 28.6491C241.297 11.3501 196.93 0 146.651 0C65.6572 0 0 29.4516 0 65.7802C0 88.4595 25.5859 108.456 64.5161 120.284C48.3766 109.715 38.9302 96.9275 38.9302 83.149V83.1525Z" fill="#FF0800"/>
<path d="M68.3966 103.212H61.5813L58.8559 88.0655H46.391L43.8157 103.212H37.1331L49.2595 36.3359H55.9177L68.4001 103.212H68.3966ZM56.832 76.7538L52.5327 51.9358L48.3138 76.7538H56.832Z" fill="#0027FF"/>
<path d="M71.6349 36.3359H77.9023V72.5564C77.9023 78.1843 77.979 81.8479 78.1361 83.5506C78.4118 86.5024 79.0748 88.7808 80.1217 90.3927C81.1686 92.0047 82.5504 92.8107 84.2638 92.8107C85.7155 92.8107 86.902 92.242 87.8198 91.101C88.7375 89.9601 89.3657 88.3795 89.7007 86.3558C90.0392 84.3356 90.2067 79.9917 90.2067 73.331V36.3359H96.474V71.4608C96.474 80.4313 96.2018 86.9176 95.6575 90.9161C95.1131 94.9146 93.8882 98.156 91.9794 100.633C90.0706 103.111 87.5546 104.353 84.4279 104.353C81.3012 104.353 78.6456 103.327 76.824 101.272C75.0024 99.2202 73.6798 96.3312 72.8598 92.6048C72.0397 88.8785 71.6279 82.0154 71.6279 72.0086V36.3359H71.6349Z" fill="#0027FF"/>
<path d="M110.104 103.212V47.6476H100.857V36.3359H125.595V47.6476H116.372V103.212H110.104Z" fill="#0027FF"/>
<path d="M127.64 70.1836C127.64 62.2145 128.31 55.655 129.646 50.4981C130.983 45.3446 132.731 41.5031 134.891 38.9805C137.051 36.4579 139.665 35.1948 142.739 35.1948C147.196 35.1948 150.825 38.192 153.63 44.1828C156.436 50.1736 157.839 58.7045 157.839 69.7754C157.839 80.8464 156.352 89.7087 153.383 96.0066C150.776 101.572 147.234 104.356 142.764 104.356C138.294 104.356 134.699 101.603 132.092 96.0973C129.123 89.8029 127.636 81.1639 127.636 70.1871L127.64 70.1836ZM134.116 69.7266C134.116 77.4201 134.947 83.191 136.608 87.0395C138.269 90.888 140.328 92.8105 142.781 92.8105C145.234 92.8105 147.304 90.902 148.93 87.0849C150.556 83.2678 151.369 77.4061 151.369 69.4998C151.369 61.5934 150.577 56.0109 148.996 52.3019C147.412 48.593 145.343 46.7368 142.785 46.7368C140.227 46.7368 138.14 48.607 136.531 52.3473C134.923 56.0876 134.12 61.883 134.12 69.7266H134.116Z" fill="#0027FF"/>
<path d="M162.763 103.212V36.3359H172.865C176.631 36.3359 179.091 36.6569 180.249 37.2954C182.095 38.3282 183.62 40.5333 184.821 43.9108C186.021 47.2883 186.621 51.6357 186.621 56.9566C186.621 61.7925 186.102 65.8468 185.069 69.1127C184.032 72.382 182.738 74.6778 181.185 76.0002C179.632 77.3225 176.955 77.9855 173.155 77.9855H169.037V103.212H162.77H162.763ZM169.034 47.6476V66.6703H172.513C174.851 66.6703 176.439 66.3807 177.276 65.8015C178.117 65.2223 178.805 64.1791 179.342 62.6683C179.88 61.1575 180.148 59.3083 180.148 57.1136C180.148 54.9189 179.873 53.0139 179.318 51.4892C178.763 49.9644 178.079 48.9421 177.266 48.4257C176.453 47.9058 174.729 47.6476 172.098 47.6476H169.034Z" fill="#0027FF"/>
<path d="M190.509 70.1836C190.509 62.2145 191.179 55.655 192.515 50.4981C193.852 45.3446 195.6 41.5031 197.76 38.9805C199.92 36.4579 202.534 35.1948 205.608 35.1948C210.065 35.1948 213.694 38.192 216.5 44.1828C219.305 50.1736 220.708 58.7045 220.708 69.7754C220.708 80.8464 219.221 89.7087 216.252 96.0066C213.645 101.572 210.103 104.356 205.633 104.356C201.163 104.356 197.568 101.603 194.962 96.0973C191.992 89.8029 190.505 81.1639 190.505 70.1871L190.509 70.1836ZM196.982 69.7266C196.982 77.4201 197.813 83.191 199.474 87.0395C201.135 90.888 203.194 92.8105 205.647 92.8105C208.1 92.8105 210.169 90.902 211.796 87.0849C213.422 83.2678 214.235 77.4061 214.235 69.4998C214.235 61.5934 213.443 56.0109 211.862 52.3019C210.278 48.593 208.208 46.7368 205.65 46.7368C203.092 46.7368 201.006 48.607 199.397 52.3473C197.788 56.0876 196.986 61.883 196.986 69.7266H196.982Z" fill="#0027FF"/>
<path d="M225.45 103.212V36.3359H231.718V103.212H225.45Z" fill="#0027FF"/>
<path d="M237.807 103.212V36.3359H243.921L256.665 80.9966V36.3359H262.521V103.212H256.201L243.663 59.6013V103.212H237.807Z" fill="#0027FF"/>
<path d="M276.144 103.212V47.6476H266.897V36.3359H291.635V47.6476H282.412V103.212H276.144Z" fill="#0027FF"/>
<path d="M7.58301 158.409V120.654H12.9884L19.4373 147.387L20.7284 152.977C21.046 151.585 21.5275 149.568 22.1766 146.923L28.6952 120.654H33.5353V158.409H30.0771V126.833L22.1522 158.409H18.9208L11.0412 126.289V158.409H7.58301Z" fill="black"/>
<path d="M38.3022 140.022C38.3022 133.584 39.5445 128.633 42.0326 125.176C44.5207 121.714 47.616 119.987 51.322 119.987C53.7194 119.987 55.9039 120.758 57.879 122.304C59.8541 123.85 61.4175 126.093 62.5691 129.038C63.7206 131.983 64.2999 135.489 64.2999 139.558C64.2999 145.154 63.1832 149.715 60.9534 153.235C58.4967 157.115 55.2792 159.055 51.3011 159.055C47.3229 159.055 44.0671 157.063 41.6244 153.082C39.4085 149.477 38.3022 145.123 38.3022 140.025V140.022ZM42.0117 140.088C42.0117 144.746 42.912 148.357 44.7127 150.929C46.5133 153.497 48.7013 154.781 51.2801 154.781C53.859 154.781 56.1307 153.483 57.9139 150.887C59.7006 148.291 60.5939 144.477 60.5939 139.443C60.5939 136.194 60.1333 133.291 59.2155 130.73C58.5071 128.769 57.4393 127.203 56.0156 126.027C54.5918 124.851 53.0354 124.261 51.3464 124.261C48.635 124.261 46.3982 125.549 44.6429 128.127C42.8876 130.706 42.0082 134.694 42.0082 140.088H42.0117Z" fill="black"/>
<path d="M75.8295 158.409V125.109H66.8787V120.654H88.4236V125.109H79.4273V158.409H75.833H75.8295Z" fill="black"/>
<path d="M90.3882 140.022C90.3882 133.584 91.6305 128.633 94.1186 125.176C96.6067 121.714 99.702 119.987 103.408 119.987C105.805 119.987 107.99 120.758 109.965 122.304C111.94 123.85 113.503 126.093 114.655 129.038C115.807 131.983 116.386 135.489 116.386 139.558C116.386 145.154 115.269 149.715 113.039 153.235C110.583 157.115 107.365 159.055 103.387 159.055C99.4089 159.055 96.153 157.063 93.7103 153.082C91.4944 149.477 90.3882 145.123 90.3882 140.025V140.022ZM94.0942 140.088C94.0942 144.746 94.9945 148.357 96.7951 150.929C98.5958 153.497 100.784 154.781 103.363 154.781C105.941 154.781 108.213 153.483 109.996 150.887C111.783 148.291 112.676 144.477 112.676 139.443C112.676 136.194 112.216 133.291 111.298 130.73C110.59 128.769 109.525 127.203 108.098 126.027C106.674 124.851 105.118 124.261 103.429 124.261C100.717 124.261 98.4806 125.549 96.7253 128.127C94.9701 130.706 94.0907 134.694 94.0907 140.088H94.0942Z" fill="black"/>
<path d="M120.926 158.409V120.654H132.975C135.491 120.654 137.351 121.006 138.548 121.711C139.745 122.416 140.729 123.585 141.497 125.225C142.265 126.864 142.649 128.763 142.649 130.926C142.649 133.773 141.996 136.083 140.694 137.848C139.393 139.614 137.495 140.741 135.01 141.219C136.018 141.909 136.79 142.611 137.317 143.319C138.388 144.76 139.33 146.369 140.143 148.134L144.889 158.409H140.366L136.744 150.559C135.341 147.489 134.281 145.42 133.565 144.352C132.85 143.284 132.159 142.569 131.489 142.199C130.819 141.829 129.88 141.644 128.676 141.644H124.52V158.409H120.926ZM124.52 137.318H132.253C133.942 137.318 135.223 137.088 136.095 136.623C136.968 136.159 137.662 135.43 138.175 134.436C138.688 133.441 138.943 132.28 138.943 130.957C138.943 129.052 138.454 127.555 137.474 126.463C136.493 125.371 135.041 124.827 133.112 124.827H124.52V137.318Z" fill="black"/>
<path d="M171.7 143.602V139.146L183.205 139.122V153.158C181.443 155.116 179.618 156.588 177.733 157.575C175.849 158.563 173.912 159.058 171.923 159.058C169.271 159.058 166.905 158.301 164.825 156.79C162.745 155.28 161.098 153.071 159.887 150.168C158.673 147.265 158.069 143.776 158.069 139.704C158.069 135.632 158.68 131.99 159.901 128.933C161.123 125.877 162.721 123.619 164.693 122.168C166.668 120.716 169.002 119.991 171.7 119.991C173.689 119.991 175.43 120.413 176.92 121.254C178.414 122.095 179.639 123.288 180.605 124.834C181.572 126.379 182.294 128.501 182.776 131.194L179.544 132.429C179.108 130.301 178.557 128.707 177.894 127.653C177.231 126.596 176.355 125.769 175.273 125.169C174.188 124.568 172.967 124.268 171.613 124.268C169.637 124.268 167.938 124.813 166.514 125.905C165.09 126.997 163.946 128.693 163.077 130.995C162.208 133.298 161.779 136.107 161.779 139.425C161.779 144.477 162.707 148.263 164.56 150.779C166.413 153.298 168.824 154.554 171.794 154.554C173.211 154.554 174.662 154.167 176.146 153.395C177.629 152.624 178.808 151.703 179.684 150.639V143.609H171.703L171.7 143.602Z" fill="black"/>
<path d="M188.429 158.409V120.654H200.479C202.995 120.654 204.855 121.006 206.052 121.711C207.249 122.416 208.233 123.585 209.001 125.225C209.768 126.864 210.152 128.763 210.152 130.926C210.152 133.773 209.5 136.083 208.198 137.848C206.896 139.614 204.998 140.741 202.513 141.219C203.522 141.909 204.293 142.611 204.82 143.319C205.891 144.76 206.833 146.369 207.647 148.134L212.392 158.409H207.87L204.248 150.559C202.845 147.489 201.784 145.42 201.069 144.352C200.353 143.284 199.662 142.569 198.992 142.199C198.322 141.829 197.384 141.644 196.18 141.644H192.024V158.409H188.429ZM192.024 137.318H199.757C201.445 137.318 202.726 137.088 203.599 136.623C204.471 136.159 205.165 135.43 205.678 134.436C206.191 133.441 206.446 132.28 206.446 130.957C206.446 129.052 205.958 127.555 204.977 126.463C203.996 125.371 202.545 124.827 200.615 124.827H192.024V137.318Z" fill="black"/>
<path d="M214.832 140.022C214.832 133.584 216.074 128.633 218.562 125.176C221.05 121.714 224.145 119.987 227.851 119.987C230.249 119.987 232.433 120.758 234.408 122.304C236.383 123.85 237.947 126.093 239.098 129.038C240.25 131.983 240.829 135.489 240.829 139.558C240.829 145.154 239.713 149.715 237.483 153.235C235.026 157.115 231.809 159.055 227.83 159.055C223.852 159.055 220.596 157.063 218.154 153.082C215.938 149.477 214.832 145.123 214.832 140.025V140.022ZM218.541 140.088C218.541 144.746 219.441 148.357 221.242 150.929C223.043 153.497 225.231 154.781 227.809 154.781C230.388 154.781 232.66 153.483 234.443 150.887C236.23 148.291 237.123 144.477 237.123 139.443C237.123 136.194 236.663 133.291 235.745 130.73C235.036 128.769 233.972 127.203 232.545 126.027C231.121 124.851 229.565 124.261 227.876 124.261C225.164 124.261 222.927 125.549 221.172 128.127C219.417 130.706 218.538 134.694 218.538 140.088H218.541Z" fill="black"/>
<path d="M263.142 120.654H266.736V142.468C266.736 146.124 266.422 149.125 265.798 151.47C265.173 153.814 264.035 155.664 262.388 157.021C260.738 158.378 258.644 159.055 256.1 159.055C252.516 159.055 249.833 157.837 248.049 155.398C246.266 152.96 245.373 148.65 245.373 142.471V120.657H248.967V142.447C248.967 145.863 249.201 148.336 249.669 149.865C250.136 151.393 250.9 152.555 251.965 153.354C253.029 154.153 254.32 154.551 255.842 154.551C258.403 154.551 260.263 153.727 261.415 152.077C262.566 150.43 263.145 147.216 263.145 142.443V120.654H263.142Z" fill="black"/>
<path d="M272.77 158.409V120.654H283.012C285.423 120.654 287.203 120.895 288.347 121.376C289.914 122.029 291.167 123.239 292.099 125.008C293.034 126.777 293.502 128.947 293.502 131.522C293.502 134.921 292.741 137.695 291.219 139.84C289.698 141.986 287.067 143.061 283.329 143.061H276.368V158.409H272.773H272.77ZM276.364 138.605H283.396C285.612 138.605 287.231 138.033 288.257 136.892C289.283 135.751 289.792 134.028 289.792 131.728C289.792 130.235 289.541 128.954 289.035 127.89C288.529 126.826 287.918 126.097 287.203 125.703C286.487 125.308 285.196 125.109 283.326 125.109H276.364V138.605Z" fill="black"/>
<path d="M289.408 165.53H6.41748V170H289.408V165.53Z" fill="#FC0A02"/>
<path d="M303.206 31.7544C305.698 31.7544 307.785 32.6302 309.47 34.3852C311.155 36.1367 312 38.1883 312 40.54C312 42.1764 311.585 43.6802 310.751 45.0549C309.917 46.4296 308.824 47.4798 307.477 48.2125C306.127 48.9452 304.703 49.3116 303.21 49.3116C300.718 49.3116 298.631 48.4358 296.946 46.6878C295.26 44.9397 294.416 42.8882 294.416 40.54C294.416 38.8966 294.831 37.3858 295.665 36.0146C296.499 34.6399 297.591 33.5897 298.938 32.857C300.289 32.1242 301.713 31.7579 303.206 31.7579V31.7544ZM303.206 33.2094C301.112 33.2094 299.343 33.97 297.891 35.4912C296.548 36.9043 295.874 38.5861 295.874 40.5435C295.874 42.6474 296.642 44.4199 298.174 45.8609C299.594 47.1937 301.273 47.8636 303.203 47.8636C305.286 47.8636 307.059 47.103 308.517 45.5817C309.861 44.1791 310.534 42.4974 310.534 40.5435C310.534 38.4395 309.767 36.6671 308.231 35.2261C306.811 33.8828 305.132 33.2128 303.203 33.2128L303.206 33.2094ZM299.343 45.3968V35.9448H302.609C303.726 35.9448 304.522 36.0286 304.996 36.1995C305.471 36.3705 305.862 36.6636 306.176 37.0823C306.49 37.501 306.643 37.9755 306.643 38.5023C306.643 39.2316 306.392 39.8422 305.886 40.3341C305.384 40.8261 304.738 41.1052 303.953 41.1645C304.302 41.3146 304.581 41.4925 304.79 41.7019C305.188 42.1066 305.642 42.7207 306.151 43.5441L307.282 45.3933H305.436L304.585 43.9035C303.939 42.7625 303.422 42.0368 303.035 41.7228C302.742 41.4855 302.323 41.3704 301.786 41.3704H300.875V45.3933H299.34L299.343 45.3968ZM300.879 40.0689H302.739C303.573 40.0689 304.162 39.9468 304.508 39.7026C304.853 39.4584 305.028 39.099 305.028 38.6279C305.028 38.3244 304.94 38.0627 304.766 37.8359C304.591 37.6126 304.365 37.4521 304.092 37.3579C303.817 37.2637 303.325 37.2183 302.616 37.2183H300.882V40.0689H300.879Z" fill="#0027FF"/>
</svg>
